<?xml version="1.0" encoding="utf-8"?>
<svg width="468" height="468" viewBox="0 0 468 468" xmlns="http://www.w3.org/2000/svg" xmlns:xlink="http://www.w3.org/1999/xlink">
<rect width="468" height="468" fill="#ffffff"/>
<defs>
<rect id="p" width="12" height="12" />
</defs>
<g>
<use x="36" y="36" xlink:href="#p" fill="#000000" />
<use x="48" y="36" xlink:href="#p" fill="#000000" />
<use x="60" y="36" xlink:href="#p" fill="#000000" />
<use x="72" y="36" xlink:href="#p" fill="#000000" />
<use x="84" y="36" xlink:href="#p" fill="#000000" />
<use x="96" y="36" xlink:href="#p" fill="#000000" />
<use x="108" y="36" xlink:href="#p" fill="#000000" />
<use x="132" y="36" xlink:href="#p" fill="#000000" />
<use x="144" y="36" xlink:href="#p" fill="#000000" />
<use x="156" y="36" xlink:href="#p" fill="#000000" />
<use x="168" y="36" xlink:href="#p" fill="#000000" />
<use x="204" y="36" xlink:href="#p" fill="#000000" />
<use x="252" y="36" xlink:href="#p" fill="#000000" />
<use x="264" y="36" xlink:href="#p" fill="#000000" />
<use x="276" y="36" xlink:href="#p" fill="#000000" />
<use x="288" y="36" xlink:href="#p" fill="#000000" />
<use x="300" y="36" xlink:href="#p" fill="#000000" />
<use x="312" y="36" xlink:href="#p" fill="#000000" />
<use x="348" y="36" xlink:href="#p" fill="#000000" />
<use x="360" y="36" xlink:href="#p" fill="#000000" />
<use x="372" y="36" xlink:href="#p" fill="#000000" />
<use x="384" y="36" xlink:href="#p" fill="#000000" />
<use x="396" y="36" xlink:href="#p" fill="#000000" />
<use x="408" y="36" xlink:href="#p" fill="#000000" />
<use x="420" y="36" xlink:href="#p" fill="#000000" />
<use x="36" y="48" xlink:href="#p" fill="#000000" />
<use x="108" y="48" xlink:href="#p" fill="#000000" />
<use x="132" y="48" xlink:href="#p" fill="#000000" />
<use x="192" y="48" xlink:href="#p" fill="#000000" />
<use x="204" y="48" xlink:href="#p" fill="#000000" />
<use x="216" y="48" xlink:href="#p" fill="#000000" />
<use x="240" y="48" xlink:href="#p" fill="#000000" />
<use x="264" y="48" xlink:href="#p" fill="#000000" />
<use x="276" y="48" xlink:href="#p" fill="#000000" />
<use x="288" y="48" xlink:href="#p" fill="#000000" />
<use x="312" y="48" xlink:href="#p" fill="#000000" />
<use x="348" y="48" xlink:href="#p" fill="#000000" />
<use x="420" y="48" xlink:href="#p" fill="#000000" />
<use x="36" y="60" xlink:href="#p" fill="#000000" />
<use x="60" y="60" xlink:href="#p" fill="#000000" />
<use x="72" y="60" xlink:href="#p" fill="#000000" />
<use x="84" y="60" xlink:href="#p" fill="#000000" />
<use x="108" y="60" xlink:href="#p" fill="#000000" />
<use x="132" y="60" xlink:href="#p" fill="#000000" />
<use x="156" y="60" xlink:href="#p" fill="#000000" />
<use x="168" y="60" xlink:href="#p" fill="#000000" />
<use x="180" y="60" xlink:href="#p" fill="#000000" />
<use x="204" y="60" xlink:href="#p" fill="#000000" />
<use x="228" y="60" xlink:href="#p" fill="#000000" />
<use x="252" y="60" xlink:href="#p" fill="#000000" />
<use x="288" y="60" xlink:href="#p" fill="#000000" />
<use x="348" y="60" xlink:href="#p" fill="#000000" />
<use x="372" y="60" xlink:href="#p" fill="#000000" />
<use x="384" y="60" xlink:href="#p" fill="#000000" />
<use x="396" y="60" xlink:href="#p" fill="#000000" />
<use x="420" y="60" xlink:href="#p" fill="#000000" />
<use x="36" y="72" xlink:href="#p" fill="#000000" />
<use x="60" y="72" xlink:href="#p" fill="#000000" />
<use x="72" y="72" xlink:href="#p" fill="#000000" />
<use x="84" y="72" xlink:href="#p" fill="#000000" />
<use x="108" y="72" xlink:href="#p" fill="#000000" />
<use x="132" y="72" xlink:href="#p" fill="#000000" />
<use x="228" y="72" xlink:href="#p" fill="#000000" />
<use x="240" y="72" xlink:href="#p" fill="#000000" />
<use x="324" y="72" xlink:href="#p" fill="#000000" />
<use x="348" y="72" xlink:href="#p" fill="#000000" />
<use x="372" y="72" xlink:href="#p" fill="#000000" />
<use x="384" y="72" xlink:href="#p" fill="#000000" />
<use x="396" y="72" xlink:href="#p" fill="#000000" />
<use x="420" y="72" xlink:href="#p" fill="#000000" />
<use x="36" y="84" xlink:href="#p" fill="#000000" />
<use x="60" y="84" xlink:href="#p" fill="#000000" />
<use x="72" y="84" xlink:href="#p" fill="#000000" />
<use x="84" y="84" xlink:href="#p" fill="#000000" />
<use x="108" y="84" xlink:href="#p" fill="#000000" />
<use x="132" y="84" xlink:href="#p" fill="#000000" />
<use x="168" y="84" xlink:href="#p" fill="#000000" />
<use x="192" y="84" xlink:href="#p" fill="#000000" />
<use x="216" y="84" xlink:href="#p" fill="#000000" />
<use x="228" y="84" xlink:href="#p" fill="#000000" />
<use x="240" y="84" xlink:href="#p" fill="#000000" />
<use x="252" y="84" xlink:href="#p" fill="#000000" />
<use x="264" y="84" xlink:href="#p" fill="#000000" />
<use x="288" y="84" xlink:href="#p" fill="#000000" />
<use x="312" y="84" xlink:href="#p" fill="#000000" />
<use x="324" y="84" xlink:href="#p" fill="#000000" />
<use x="348" y="84" xlink:href="#p" fill="#000000" />
<use x="372" y="84" xlink:href="#p" fill="#000000" />
<use x="384" y="84" xlink:href="#p" fill="#000000" />
<use x="396" y="84" xlink:href="#p" fill="#000000" />
<use x="420" y="84" xlink:href="#p" fill="#000000" />
<use x="36" y="96" xlink:href="#p" fill="#000000" />
<use x="108" y="96" xlink:href="#p" fill="#000000" />
<use x="156" y="96" xlink:href="#p" fill="#000000" />
<use x="168" y="96" xlink:href="#p" fill="#000000" />
<use x="180" y="96" xlink:href="#p" fill="#000000" />
<use x="192" y="96" xlink:href="#p" fill="#000000" />
<use x="204" y="96" xlink:href="#p" fill="#000000" />
<use x="252" y="96" xlink:href="#p" fill="#000000" />
<use x="288" y="96" xlink:href="#p" fill="#000000" />
<use x="324" y="96" xlink:href="#p" fill="#000000" />
<use x="348" y="96" xlink:href="#p" fill="#000000" />
<use x="420" y="96" xlink:href="#p" fill="#000000" />
<use x="36" y="108" xlink:href="#p" fill="#000000" />
<use x="48" y="108" xlink:href="#p" fill="#000000" />
<use x="60" y="108" xlink:href="#p" fill="#000000" />
<use x="72" y="108" xlink:href="#p" fill="#000000" />
<use x="84" y="108" xlink:href="#p" fill="#000000" />
<use x="96" y="108" xlink:href="#p" fill="#000000" />
<use x="108" y="108" xlink:href="#p" fill="#000000" />
<use x="132" y="108" xlink:href="#p" fill="#000000" />
<use x="156" y="108" xlink:href="#p" fill="#000000" />
<use x="180" y="108" xlink:href="#p" fill="#000000" />
<use x="204" y="108" xlink:href="#p" fill="#000000" />
<use x="228" y="108" xlink:href="#p" fill="#000000" />
<use x="252" y="108" xlink:href="#p" fill="#000000" />
<use x="276" y="108" xlink:href="#p" fill="#000000" />
<use x="300" y="108" xlink:href="#p" fill="#000000" />
<use x="324" y="108" xlink:href="#p" fill="#000000" />
<use x="348" y="108" xlink:href="#p" fill="#000000" />
<use x="360" y="108" xlink:href="#p" fill="#000000" />
<use x="372" y="108" xlink:href="#p" fill="#000000" />
<use x="384" y="108" xlink:href="#p" fill="#000000" />
<use x="396" y="108" xlink:href="#p" fill="#000000" />
<use x="408" y="108" xlink:href="#p" fill="#000000" />
<use x="420" y="108" xlink:href="#p" fill="#000000" />
<use x="132" y="120" xlink:href="#p" fill="#000000" />
<use x="180" y="120" xlink:href="#p" fill="#000000" />
<use x="204" y="120" xlink:href="#p" fill="#000000" />
<use x="216" y="120" xlink:href="#p" fill="#000000" />
<use x="228" y="120" xlink:href="#p" fill="#000000" />
<use x="240" y="120" xlink:href="#p" fill="#000000" />
<use x="252" y="120" xlink:href="#p" fill="#000000" />
<use x="264" y="120" xlink:href="#p" fill="#000000" />
<use x="288" y="120" xlink:href="#p" fill="#000000" />
<use x="300" y="120" xlink:href="#p" fill="#000000" />
<use x="312" y="120" xlink:href="#p" fill="#000000" />
<use x="324" y="120" xlink:href="#p" fill="#000000" />
<use x="48" y="132" xlink:href="#p" fill="#000000" />
<use x="60" y="132" xlink:href="#p" fill="#000000" />
<use x="84" y="132" xlink:href="#p" fill="#000000" />
<use x="108" y="132" xlink:href="#p" fill="#000000" />
<use x="120" y="132" xlink:href="#p" fill="#000000" />
<use x="144" y="132" xlink:href="#p" fill="#000000" />
<use x="168" y="132" xlink:href="#p" fill="#000000" />
<use x="204" y="132" xlink:href="#p" fill="#000000" />
<use x="216" y="132" xlink:href="#p" fill="#000000" />
<use x="228" y="132" xlink:href="#p" fill="#000000" />
<use x="240" y="132" xlink:href="#p" fill="#000000" />
<use x="276" y="132" xlink:href="#p" fill="#000000" />
<use x="288" y="132" xlink:href="#p" fill="#000000" />
<use x="324" y="132" xlink:href="#p" fill="#000000" />
<use x="348" y="132" xlink:href="#p" fill="#000000" />
<use x="372" y="132" xlink:href="#p" fill="#000000" />
<use x="384" y="132" xlink:href="#p" fill="#000000" />
<use x="396" y="132" xlink:href="#p" fill="#000000" />
<use x="408" y="132" xlink:href="#p" fill="#000000" />
<use x="420" y="132" xlink:href="#p" fill="#000000" />
<use x="48" y="144" xlink:href="#p" fill="#000000" />
<use x="60" y="144" xlink:href="#p" fill="#000000" />
<use x="72" y="144" xlink:href="#p" fill="#000000" />
<use x="84" y="144" xlink:href="#p" fill="#000000" />
<use x="96" y="144" xlink:href="#p" fill="#000000" />
<use x="120" y="144" xlink:href="#p" fill="#000000" />
<use x="132" y="144" xlink:href="#p" fill="#000000" />
<use x="168" y="144" xlink:href="#p" fill="#000000" />
<use x="180" y="144" xlink:href="#p" fill="#000000" />
<use x="192" y="144" xlink:href="#p" fill="#000000" />
<use x="276" y="144" xlink:href="#p" fill="#000000" />
<use x="300" y="144" xlink:href="#p" fill="#000000" />
<use x="324" y="144" xlink:href="#p" fill="#000000" />
<use x="336" y="144" xlink:href="#p" fill="#000000" />
<use x="348" y="144" xlink:href="#p" fill="#000000" />
<use x="360" y="144" xlink:href="#p" fill="#000000" />
<use x="60" y="156" xlink:href="#p" fill="#000000" />
<use x="84" y="156" xlink:href="#p" fill="#000000" />
<use x="108" y="156" xlink:href="#p" fill="#000000" />
<use x="120" y="156" xlink:href="#p" fill="#000000" />
<use x="168" y="156" xlink:href="#p" fill="#000000" />
<use x="192" y="156" xlink:href="#p" fill="#000000" />
<use x="216" y="156" xlink:href="#p" fill="#000000" />
<use x="228" y="156" xlink:href="#p" fill="#000000" />
<use x="240" y="156" xlink:href="#p" fill="#000000" />
<use x="360" y="156" xlink:href="#p" fill="#000000" />
<use x="396" y="156" xlink:href="#p" fill="#000000" />
<use x="420" y="156" xlink:href="#p" fill="#000000" />
<use x="48" y="168" xlink:href="#p" fill="#000000" />
<use x="60" y="168" xlink:href="#p" fill="#000000" />
<use x="72" y="168" xlink:href="#p" fill="#000000" />
<use x="84" y="168" xlink:href="#p" fill="#000000" />
<use x="132" y="168" xlink:href="#p" fill="#000000" />
<use x="168" y="168" xlink:href="#p" fill="#000000" />
<use x="180" y="168" xlink:href="#p" fill="#000000" />
<use x="216" y="168" xlink:href="#p" fill="#000000" />
<use x="228" y="168" xlink:href="#p" fill="#000000" />
<use x="276" y="168" xlink:href="#p" fill="#000000" />
<use x="312" y="168" xlink:href="#p" fill="#000000" />
<use x="372" y="168" xlink:href="#p" fill="#000000" />
<use x="408" y="168" xlink:href="#p" fill="#000000" />
<use x="48" y="180" xlink:href="#p" fill="#000000" />
<use x="60" y="180" xlink:href="#p" fill="#000000" />
<use x="72" y="180" xlink:href="#p" fill="#000000" />
<use x="84" y="180" xlink:href="#p" fill="#000000" />
<use x="96" y="180" xlink:href="#p" fill="#000000" />
<use x="108" y="180" xlink:href="#p" fill="#000000" />
<use x="156" y="180" xlink:href="#p" fill="#000000" />
<use x="168" y="180" xlink:href="#p" fill="#000000" />
<use x="192" y="180" xlink:href="#p" fill="#000000" />
<use x="264" y="180" xlink:href="#p" fill="#000000" />
<use x="276" y="180" xlink:href="#p" fill="#000000" />
<use x="336" y="180" xlink:href="#p" fill="#000000" />
<use x="360" y="180" xlink:href="#p" fill="#000000" />
<use x="384" y="180" xlink:href="#p" fill="#000000" />
<use x="72" y="192" xlink:href="#p" fill="#000000" />
<use x="84" y="192" xlink:href="#p" fill="#000000" />
<use x="120" y="192" xlink:href="#p" fill="#000000" />
<use x="132" y="192" xlink:href="#p" fill="#000000" />
<use x="156" y="192" xlink:href="#p" fill="#000000" />
<use x="168" y="192" xlink:href="#p" fill="#000000" />
<use x="216" y="192" xlink:href="#p" fill="#000000" />
<use x="240" y="192" xlink:href="#p" fill="#000000" />
<use x="276" y="192" xlink:href="#p" fill="#000000" />
<use x="288" y="192" xlink:href="#p" fill="#000000" />
<use x="312" y="192" xlink:href="#p" fill="#000000" />
<use x="324" y="192" xlink:href="#p" fill="#000000" />
<use x="336" y="192" xlink:href="#p" fill="#000000" />
<use x="348" y="192" xlink:href="#p" fill="#000000" />
<use x="360" y="192" xlink:href="#p" fill="#000000" />
<use x="384" y="192" xlink:href="#p" fill="#000000" />
<use x="420" y="192" xlink:href="#p" fill="#000000" />
<use x="36" y="204" xlink:href="#p" fill="#000000" />
<use x="48" y="204" xlink:href="#p" fill="#000000" />
<use x="84" y="204" xlink:href="#p" fill="#000000" />
<use x="96" y="204" xlink:href="#p" fill="#000000" />
<use x="108" y="204" xlink:href="#p" fill="#000000" />
<use x="132" y="204" xlink:href="#p" fill="#000000" />
<use x="144" y="204" xlink:href="#p" fill="#000000" />
<use x="192" y="204" xlink:href="#p" fill="#000000" />
<use x="216" y="204" xlink:href="#p" fill="#000000" />
<use x="252" y="204" xlink:href="#p" fill="#000000" />
<use x="264" y="204" xlink:href="#p" fill="#000000" />
<use x="276" y="204" xlink:href="#p" fill="#000000" />
<use x="300" y="204" xlink:href="#p" fill="#000000" />
<use x="312" y="204" xlink:href="#p" fill="#000000" />
<use x="336" y="204" xlink:href="#p" fill="#000000" />
<use x="372" y="204" xlink:href="#p" fill="#000000" />
<use x="396" y="204" xlink:href="#p" fill="#000000" />
<use x="408" y="204" xlink:href="#p" fill="#000000" />
<use x="420" y="204" xlink:href="#p" fill="#000000" />
<use x="96" y="216" xlink:href="#p" fill="#000000" />
<use x="144" y="216" xlink:href="#p" fill="#000000" />
<use x="156" y="216" xlink:href="#p" fill="#000000" />
<use x="180" y="216" xlink:href="#p" fill="#000000" />
<use x="192" y="216" xlink:href="#p" fill="#000000" />
<use x="204" y="216" xlink:href="#p" fill="#000000" />
<use x="216" y="216" xlink:href="#p" fill="#000000" />
<use x="228" y="216" xlink:href="#p" fill="#000000" />
<use x="264" y="216" xlink:href="#p" fill="#000000" />
<use x="276" y="216" xlink:href="#p" fill="#000000" />
<use x="288" y="216" xlink:href="#p" fill="#000000" />
<use x="312" y="216" xlink:href="#p" fill="#000000" />
<use x="324" y="216" xlink:href="#p" fill="#000000" />
<use x="348" y="216" xlink:href="#p" fill="#000000" />
<use x="360" y="216" xlink:href="#p" fill="#000000" />
<use x="384" y="216" xlink:href="#p" fill="#000000" />
<use x="408" y="216" xlink:href="#p" fill="#000000" />
<use x="48" y="228" xlink:href="#p" fill="#000000" />
<use x="84" y="228" xlink:href="#p" fill="#000000" />
<use x="108" y="228" xlink:href="#p" fill="#000000" />
<use x="120" y="228" xlink:href="#p" fill="#000000" />
<use x="144" y="228" xlink:href="#p" fill="#000000" />
<use x="168" y="228" xlink:href="#p" fill="#000000" />
<use x="204" y="228" xlink:href="#p" fill="#000000" />
<use x="228" y="228" xlink:href="#p" fill="#000000" />
<use x="252" y="228" xlink:href="#p" fill="#000000" />
<use x="264" y="228" xlink:href="#p" fill="#000000" />
<use x="276" y="228" xlink:href="#p" fill="#000000" />
<use x="288" y="228" xlink:href="#p" fill="#000000" />
<use x="324" y="228" xlink:href="#p" fill="#000000" />
<use x="336" y="228" xlink:href="#p" fill="#000000" />
<use x="348" y="228" xlink:href="#p" fill="#000000" />
<use x="384" y="228" xlink:href="#p" fill="#000000" />
<use x="396" y="228" xlink:href="#p" fill="#000000" />
<use x="36" y="240" xlink:href="#p" fill="#000000" />
<use x="72" y="240" xlink:href="#p" fill="#000000" />
<use x="84" y="240" xlink:href="#p" fill="#000000" />
<use x="132" y="240" xlink:href="#p" fill="#000000" />
<use x="156" y="240" xlink:href="#p" fill="#000000" />
<use x="192" y="240" xlink:href="#p" fill="#000000" />
<use x="216" y="240" xlink:href="#p" fill="#000000" />
<use x="276" y="240" xlink:href="#p" fill="#000000" />
<use x="288" y="240" xlink:href="#p" fill="#000000" />
<use x="324" y="240" xlink:href="#p" fill="#000000" />
<use x="348" y="240" xlink:href="#p" fill="#000000" />
<use x="360" y="240" xlink:href="#p" fill="#000000" />
<use x="420" y="240" xlink:href="#p" fill="#000000" />
<use x="48" y="252" xlink:href="#p" fill="#000000" />
<use x="84" y="252" xlink:href="#p" fill="#000000" />
<use x="108" y="252" xlink:href="#p" fill="#000000" />
<use x="132" y="252" xlink:href="#p" fill="#000000" />
<use x="144" y="252" xlink:href="#p" fill="#000000" />
<use x="156" y="252" xlink:href="#p" fill="#000000" />
<use x="204" y="252" xlink:href="#p" fill="#000000" />
<use x="228" y="252" xlink:href="#p" fill="#000000" />
<use x="240" y="252" xlink:href="#p" fill="#000000" />
<use x="252" y="252" xlink:href="#p" fill="#000000" />
<use x="300" y="252" xlink:href="#p" fill="#000000" />
<use x="324" y="252" xlink:href="#p" fill="#000000" />
<use x="348" y="252" xlink:href="#p" fill="#000000" />
<use x="396" y="252" xlink:href="#p" fill="#000000" />
<use x="408" y="252" xlink:href="#p" fill="#000000" />
<use x="420" y="252" xlink:href="#p" fill="#000000" />
<use x="48" y="264" xlink:href="#p" fill="#000000" />
<use x="60" y="264" xlink:href="#p" fill="#000000" />
<use x="96" y="264" xlink:href="#p" fill="#000000" />
<use x="120" y="264" xlink:href="#p" fill="#000000" />
<use x="144" y="264" xlink:href="#p" fill="#000000" />
<use x="156" y="264" xlink:href="#p" fill="#000000" />
<use x="180" y="264" xlink:href="#p" fill="#000000" />
<use x="204" y="264" xlink:href="#p" fill="#000000" />
<use x="228" y="264" xlink:href="#p" fill="#000000" />
<use x="240" y="264" xlink:href="#p" fill="#000000" />
<use x="252" y="264" xlink:href="#p" fill="#000000" />
<use x="300" y="264" xlink:href="#p" fill="#000000" />
<use x="324" y="264" xlink:href="#p" fill="#000000" />
<use x="360" y="264" xlink:href="#p" fill="#000000" />
<use x="372" y="264" xlink:href="#p" fill="#000000" />
<use x="420" y="264" xlink:href="#p" fill="#000000" />
<use x="48" y="276" xlink:href="#p" fill="#000000" />
<use x="60" y="276" xlink:href="#p" fill="#000000" />
<use x="72" y="276" xlink:href="#p" fill="#000000" />
<use x="84" y="276" xlink:href="#p" fill="#000000" />
<use x="108" y="276" xlink:href="#p" fill="#000000" />
<use x="144" y="276" xlink:href="#p" fill="#000000" />
<use x="156" y="276" xlink:href="#p" fill="#000000" />
<use x="180" y="276" xlink:href="#p" fill="#000000" />
<use x="204" y="276" xlink:href="#p" fill="#000000" />
<use x="216" y="276" xlink:href="#p" fill="#000000" />
<use x="252" y="276" xlink:href="#p" fill="#000000" />
<use x="276" y="276" xlink:href="#p" fill="#000000" />
<use x="288" y="276" xlink:href="#p" fill="#000000" />
<use x="300" y="276" xlink:href="#p" fill="#000000" />
<use x="312" y="276" xlink:href="#p" fill="#000000" />
<use x="324" y="276" xlink:href="#p" fill="#000000" />
<use x="360" y="276" xlink:href="#p" fill="#000000" />
<use x="372" y="276" xlink:href="#p" fill="#000000" />
<use x="384" y="276" xlink:href="#p" fill="#000000" />
<use x="48" y="288" xlink:href="#p" fill="#000000" />
<use x="60" y="288" xlink:href="#p" fill="#000000" />
<use x="72" y="288" xlink:href="#p" fill="#000000" />
<use x="84" y="288" xlink:href="#p" fill="#000000" />
<use x="96" y="288" xlink:href="#p" fill="#000000" />
<use x="120" y="288" xlink:href="#p" fill="#000000" />
<use x="132" y="288" xlink:href="#p" fill="#000000" />
<use x="156" y="288" xlink:href="#p" fill="#000000" />
<use x="168" y="288" xlink:href="#p" fill="#000000" />
<use x="180" y="288" xlink:href="#p" fill="#000000" />
<use x="192" y="288" xlink:href="#p" fill="#000000" />
<use x="216" y="288" xlink:href="#p" fill="#000000" />
<use x="240" y="288" xlink:href="#p" fill="#000000" />
<use x="264" y="288" xlink:href="#p" fill="#000000" />
<use x="288" y="288" xlink:href="#p" fill="#000000" />
<use x="300" y="288" xlink:href="#p" fill="#000000" />
<use x="312" y="288" xlink:href="#p" fill="#000000" />
<use x="324" y="288" xlink:href="#p" fill="#000000" />
<use x="348" y="288" xlink:href="#p" fill="#000000" />
<use x="360" y="288" xlink:href="#p" fill="#000000" />
<use x="372" y="288" xlink:href="#p" fill="#000000" />
<use x="384" y="288" xlink:href="#p" fill="#000000" />
<use x="396" y="288" xlink:href="#p" fill="#000000" />
<use x="408" y="288" xlink:href="#p" fill="#000000" />
<use x="420" y="288" xlink:href="#p" fill="#000000" />
<use x="36" y="300" xlink:href="#p" fill="#000000" />
<use x="84" y="300" xlink:href="#p" fill="#000000" />
<use x="96" y="300" xlink:href="#p" fill="#000000" />
<use x="108" y="300" xlink:href="#p" fill="#000000" />
<use x="120" y="300" xlink:href="#p" fill="#000000" />
<use x="132" y="300" xlink:href="#p" fill="#000000" />
<use x="156" y="300" xlink:href="#p" fill="#000000" />
<use x="168" y="300" xlink:href="#p" fill="#000000" />
<use x="180" y="300" xlink:href="#p" fill="#000000" />
<use x="204" y="300" xlink:href="#p" fill="#000000" />
<use x="216" y="300" xlink:href="#p" fill="#000000" />
<use x="228" y="300" xlink:href="#p" fill="#000000" />
<use x="264" y="300" xlink:href="#p" fill="#000000" />
<use x="300" y="300" xlink:href="#p" fill="#000000" />
<use x="312" y="300" xlink:href="#p" fill="#000000" />
<use x="324" y="300" xlink:href="#p" fill="#000000" />
<use x="348" y="300" xlink:href="#p" fill="#000000" />
<use x="396" y="300" xlink:href="#p" fill="#000000" />
<use x="408" y="300" xlink:href="#p" fill="#000000" />
<use x="420" y="300" xlink:href="#p" fill="#000000" />
<use x="48" y="312" xlink:href="#p" fill="#000000" />
<use x="60" y="312" xlink:href="#p" fill="#000000" />
<use x="72" y="312" xlink:href="#p" fill="#000000" />
<use x="84" y="312" xlink:href="#p" fill="#000000" />
<use x="120" y="312" xlink:href="#p" fill="#000000" />
<use x="144" y="312" xlink:href="#p" fill="#000000" />
<use x="156" y="312" xlink:href="#p" fill="#000000" />
<use x="168" y="312" xlink:href="#p" fill="#000000" />
<use x="180" y="312" xlink:href="#p" fill="#000000" />
<use x="252" y="312" xlink:href="#p" fill="#000000" />
<use x="264" y="312" xlink:href="#p" fill="#000000" />
<use x="288" y="312" xlink:href="#p" fill="#000000" />
<use x="300" y="312" xlink:href="#p" fill="#000000" />
<use x="312" y="312" xlink:href="#p" fill="#000000" />
<use x="324" y="312" xlink:href="#p" fill="#000000" />
<use x="36" y="324" xlink:href="#p" fill="#000000" />
<use x="72" y="324" xlink:href="#p" fill="#000000" />
<use x="108" y="324" xlink:href="#p" fill="#000000" />
<use x="120" y="324" xlink:href="#p" fill="#000000" />
<use x="144" y="324" xlink:href="#p" fill="#000000" />
<use x="156" y="324" xlink:href="#p" fill="#000000" />
<use x="180" y="324" xlink:href="#p" fill="#000000" />
<use x="192" y="324" xlink:href="#p" fill="#000000" />
<use x="204" y="324" xlink:href="#p" fill="#000000" />
<use x="216" y="324" xlink:href="#p" fill="#000000" />
<use x="228" y="324" xlink:href="#p" fill="#000000" />
<use x="252" y="324" xlink:href="#p" fill="#000000" />
<use x="276" y="324" xlink:href="#p" fill="#000000" />
<use x="288" y="324" xlink:href="#p" fill="#000000" />
<use x="324" y="324" xlink:href="#p" fill="#000000" />
<use x="336" y="324" xlink:href="#p" fill="#000000" />
<use x="348" y="324" xlink:href="#p" fill="#000000" />
<use x="360" y="324" xlink:href="#p" fill="#000000" />
<use x="372" y="324" xlink:href="#p" fill="#000000" />
<use x="384" y="324" xlink:href="#p" fill="#000000" />
<use x="132" y="336" xlink:href="#p" fill="#000000" />
<use x="144" y="336" xlink:href="#p" fill="#000000" />
<use x="168" y="336" xlink:href="#p" fill="#000000" />
<use x="180" y="336" xlink:href="#p" fill="#000000" />
<use x="216" y="336" xlink:href="#p" fill="#000000" />
<use x="240" y="336" xlink:href="#p" fill="#000000" />
<use x="276" y="336" xlink:href="#p" fill="#000000" />
<use x="288" y="336" xlink:href="#p" fill="#000000" />
<use x="300" y="336" xlink:href="#p" fill="#000000" />
<use x="312" y="336" xlink:href="#p" fill="#000000" />
<use x="324" y="336" xlink:href="#p" fill="#000000" />
<use x="372" y="336" xlink:href="#p" fill="#000000" />
<use x="384" y="336" xlink:href="#p" fill="#000000" />
<use x="408" y="336" xlink:href="#p" fill="#000000" />
<use x="420" y="336" xlink:href="#p" fill="#000000" />
<use x="36" y="348" xlink:href="#p" fill="#000000" />
<use x="48" y="348" xlink:href="#p" fill="#000000" />
<use x="60" y="348" xlink:href="#p" fill="#000000" />
<use x="72" y="348" xlink:href="#p" fill="#000000" />
<use x="84" y="348" xlink:href="#p" fill="#000000" />
<use x="96" y="348" xlink:href="#p" fill="#000000" />
<use x="108" y="348" xlink:href="#p" fill="#000000" />
<use x="132" y="348" xlink:href="#p" fill="#000000" />
<use x="156" y="348" xlink:href="#p" fill="#000000" />
<use x="180" y="348" xlink:href="#p" fill="#000000" />
<use x="204" y="348" xlink:href="#p" fill="#000000" />
<use x="240" y="348" xlink:href="#p" fill="#000000" />
<use x="252" y="348" xlink:href="#p" fill="#000000" />
<use x="276" y="348" xlink:href="#p" fill="#000000" />
<use x="300" y="348" xlink:href="#p" fill="#000000" />
<use x="312" y="348" xlink:href="#p" fill="#000000" />
<use x="324" y="348" xlink:href="#p" fill="#000000" />
<use x="348" y="348" xlink:href="#p" fill="#000000" />
<use x="372" y="348" xlink:href="#p" fill="#000000" />
<use x="396" y="348" xlink:href="#p" fill="#000000" />
<use x="408" y="348" xlink:href="#p" fill="#000000" />
<use x="420" y="348" xlink:href="#p" fill="#000000" />
<use x="36" y="360" xlink:href="#p" fill="#000000" />
<use x="108" y="360" xlink:href="#p" fill="#000000" />
<use x="144" y="360" xlink:href="#p" fill="#000000" />
<use x="168" y="360" xlink:href="#p" fill="#000000" />
<use x="180" y="360" xlink:href="#p" fill="#000000" />
<use x="192" y="360" xlink:href="#p" fill="#000000" />
<use x="204" y="360" xlink:href="#p" fill="#000000" />
<use x="216" y="360" xlink:href="#p" fill="#000000" />
<use x="276" y="360" xlink:href="#p" fill="#000000" />
<use x="312" y="360" xlink:href="#p" fill="#000000" />
<use x="324" y="360" xlink:href="#p" fill="#000000" />
<use x="372" y="360" xlink:href="#p" fill="#000000" />
<use x="408" y="360" xlink:href="#p" fill="#000000" />
<use x="420" y="360" xlink:href="#p" fill="#000000" />
<use x="36" y="372" xlink:href="#p" fill="#000000" />
<use x="60" y="372" xlink:href="#p" fill="#000000" />
<use x="72" y="372" xlink:href="#p" fill="#000000" />
<use x="84" y="372" xlink:href="#p" fill="#000000" />
<use x="108" y="372" xlink:href="#p" fill="#000000" />
<use x="132" y="372" xlink:href="#p" fill="#000000" />
<use x="156" y="372" xlink:href="#p" fill="#000000" />
<use x="192" y="372" xlink:href="#p" fill="#000000" />
<use x="204" y="372" xlink:href="#p" fill="#000000" />
<use x="228" y="372" xlink:href="#p" fill="#000000" />
<use x="240" y="372" xlink:href="#p" fill="#000000" />
<use x="252" y="372" xlink:href="#p" fill="#000000" />
<use x="264" y="372" xlink:href="#p" fill="#000000" />
<use x="276" y="372" xlink:href="#p" fill="#000000" />
<use x="324" y="372" xlink:href="#p" fill="#000000" />
<use x="336" y="372" xlink:href="#p" fill="#000000" />
<use x="348" y="372" xlink:href="#p" fill="#000000" />
<use x="360" y="372" xlink:href="#p" fill="#000000" />
<use x="372" y="372" xlink:href="#p" fill="#000000" />
<use x="384" y="372" xlink:href="#p" fill="#000000" />
<use x="408" y="372" xlink:href="#p" fill="#000000" />
<use x="420" y="372" xlink:href="#p" fill="#000000" />
<use x="36" y="384" xlink:href="#p" fill="#000000" />
<use x="60" y="384" xlink:href="#p" fill="#000000" />
<use x="72" y="384" xlink:href="#p" fill="#000000" />
<use x="84" y="384" xlink:href="#p" fill="#000000" />
<use x="108" y="384" xlink:href="#p" fill="#000000" />
<use x="144" y="384" xlink:href="#p" fill="#000000" />
<use x="168" y="384" xlink:href="#p" fill="#000000" />
<use x="180" y="384" xlink:href="#p" fill="#000000" />
<use x="192" y="384" xlink:href="#p" fill="#000000" />
<use x="204" y="384" xlink:href="#p" fill="#000000" />
<use x="228" y="384" xlink:href="#p" fill="#000000" />
<use x="276" y="384" xlink:href="#p" fill="#000000" />
<use x="300" y="384" xlink:href="#p" fill="#000000" />
<use x="312" y="384" xlink:href="#p" fill="#000000" />
<use x="324" y="384" xlink:href="#p" fill="#000000" />
<use x="372" y="384" xlink:href="#p" fill="#000000" />
<use x="384" y="384" xlink:href="#p" fill="#000000" />
<use x="396" y="384" xlink:href="#p" fill="#000000" />
<use x="36" y="396" xlink:href="#p" fill="#000000" />
<use x="60" y="396" xlink:href="#p" fill="#000000" />
<use x="72" y="396" xlink:href="#p" fill="#000000" />
<use x="84" y="396" xlink:href="#p" fill="#000000" />
<use x="108" y="396" xlink:href="#p" fill="#000000" />
<use x="132" y="396" xlink:href="#p" fill="#000000" />
<use x="144" y="396" xlink:href="#p" fill="#000000" />
<use x="168" y="396" xlink:href="#p" fill="#000000" />
<use x="216" y="396" xlink:href="#p" fill="#000000" />
<use x="252" y="396" xlink:href="#p" fill="#000000" />
<use x="264" y="396" xlink:href="#p" fill="#000000" />
<use x="276" y="396" xlink:href="#p" fill="#000000" />
<use x="300" y="396" xlink:href="#p" fill="#000000" />
<use x="324" y="396" xlink:href="#p" fill="#000000" />
<use x="336" y="396" xlink:href="#p" fill="#000000" />
<use x="372" y="396" xlink:href="#p" fill="#000000" />
<use x="384" y="396" xlink:href="#p" fill="#000000" />
<use x="396" y="396" xlink:href="#p" fill="#000000" />
<use x="420" y="396" xlink:href="#p" fill="#000000" />
<use x="36" y="408" xlink:href="#p" fill="#000000" />
<use x="108" y="408" xlink:href="#p" fill="#000000" />
<use x="132" y="408" xlink:href="#p" fill="#000000" />
<use x="156" y="408" xlink:href="#p" fill="#000000" />
<use x="180" y="408" xlink:href="#p" fill="#000000" />
<use x="228" y="408" xlink:href="#p" fill="#000000" />
<use x="252" y="408" xlink:href="#p" fill="#000000" />
<use x="264" y="408" xlink:href="#p" fill="#000000" />
<use x="276" y="408" xlink:href="#p" fill="#000000" />
<use x="288" y="408" xlink:href="#p" fill="#000000" />
<use x="300" y="408" xlink:href="#p" fill="#000000" />
<use x="312" y="408" xlink:href="#p" fill="#000000" />
<use x="324" y="408" xlink:href="#p" fill="#000000" />
<use x="348" y="408" xlink:href="#p" fill="#000000" />
<use x="372" y="408" xlink:href="#p" fill="#000000" />
<use x="384" y="408" xlink:href="#p" fill="#000000" />
<use x="408" y="408" xlink:href="#p" fill="#000000" />
<use x="36" y="420" xlink:href="#p" fill="#000000" />
<use x="48" y="420" xlink:href="#p" fill="#000000" />
<use x="60" y="420" xlink:href="#p" fill="#000000" />
<use x="72" y="420" xlink:href="#p" fill="#000000" />
<use x="84" y="420" xlink:href="#p" fill="#000000" />
<use x="96" y="420" xlink:href="#p" fill="#000000" />
<use x="108" y="420" xlink:href="#p" fill="#000000" />
<use x="168" y="420" xlink:href="#p" fill="#000000" />
<use x="252" y="420" xlink:href="#p" fill="#000000" />
<use x="264" y="420" xlink:href="#p" fill="#000000" />
<use x="276" y="420" xlink:href="#p" fill="#000000" />
<use x="288" y="420" xlink:href="#p" fill="#000000" />
<use x="300" y="420" xlink:href="#p" fill="#000000" />
<use x="336" y="420" xlink:href="#p" fill="#000000" />
<use x="348" y="420" xlink:href="#p" fill="#000000" />
<use x="372" y="420" xlink:href="#p" fill="#000000" />
<use x="408" y="420" xlink:href="#p" fill="#000000" />
<use x="420" y="420" xlink:href="#p" fill="#000000" />
</g>
</svg>